<svg width="24" height="24" viewBox="0 0 24 24" fill="none" xmlns="http://www.w3.org/2000/svg">
<circle opacity="0.4" cx="12" cy="12" r="5" fill="#FFFFFF"/>
<path fill-rule="evenodd" clip-rule="evenodd" d="M12 3.04163C12.3452 3.04163 12.625 3.32145 12.625 3.66663V4.49996C12.625 4.84514 12.3452 5.12496 12 5.12496C11.6548 5.12496 11.375 4.84514 11.375 4.49996V3.66663C11.375 3.32145 11.6548 3.04163 12 3.04163Z" fill="#FFFFFF"/>
<path fill-rule="evenodd" clip-rule="evenodd" d="M12 18.875C12.3452 18.875 12.625 19.1548 12.625 19.5V20.3333C12.625 20.6785 12.3452 20.9583 12 20.9583C11.6548 20.9583 11.375 20.6785 11.375 20.3333V19.5C11.375 19.1548 11.6548 18.875 12 18.875Z" fill="#FFFFFF"/>
<path fill-rule="evenodd" clip-rule="evenodd" d="M18.3345 5.66533C18.5785 5.90941 18.5785 6.30514 18.3345 6.54921L17.7452 7.13847C17.5011 7.38255 17.1054 7.38255 16.8613 7.13847C16.6173 6.89439 16.6173 6.49866 16.8613 6.25459L17.4506 5.66533C17.6947 5.42125 18.0904 5.42125 18.3345 5.66533Z" fill="#FFFFFF"/>
<path fill-rule="evenodd" clip-rule="evenodd" d="M7.13859 16.8613C7.38266 17.1053 7.38266 17.5011 7.13859 17.7451L6.54933 18.3344C6.30525 18.5785 5.90952 18.5785 5.66545 18.3344C5.42137 18.0903 5.42137 17.6946 5.66545 17.4505L6.2547 16.8613C6.49878 16.6172 6.89451 16.6172 7.13859 16.8613Z" fill="#FFFFFF"/>
<path fill-rule="evenodd" clip-rule="evenodd" d="M20.9583 12C20.9583 12.3452 20.6785 12.625 20.3333 12.625L19.5 12.625C19.1548 12.625 18.875 12.3452 18.875 12C18.875 11.6548 19.1548 11.375 19.5 11.375L20.3333 11.375C20.6785 11.375 20.9583 11.6548 20.9583 12Z" fill="#FFFFFF"/>
<path fill-rule="evenodd" clip-rule="evenodd" d="M5.12499 12C5.12499 12.3452 4.84517 12.625 4.49999 12.625L3.66666 12.625C3.32148 12.625 3.04166 12.3452 3.04166 12C3.04166 11.6548 3.32148 11.375 3.66666 11.375L4.49999 11.375C4.84517 11.375 5.12499 11.6548 5.12499 12Z" fill="#FFFFFF"/>
<path fill-rule="evenodd" clip-rule="evenodd" d="M18.3345 18.3346C18.0904 18.5787 17.6947 18.5787 17.4506 18.3346L16.8613 17.7454C16.6173 17.5013 16.6173 17.1056 16.8613 16.8615C17.1054 16.6174 17.5011 16.6174 17.7452 16.8615L18.3345 17.4508C18.5786 17.6948 18.5786 18.0906 18.3345 18.3346Z" fill="#FFFFFF"/>
<path fill-rule="evenodd" clip-rule="evenodd" d="M7.13859 7.13872C6.89452 7.3828 6.49879 7.3828 6.25471 7.13872L5.66545 6.54946C5.42138 6.30539 5.42138 5.90966 5.66545 5.66558C5.90953 5.4215 6.30526 5.4215 6.54934 5.66558L7.13859 6.25484C7.38267 6.49891 7.38267 6.89464 7.13859 7.13872Z" fill="#FFFFFF"/>
</svg>
